<?xml version="1.0" encoding="UTF-8" ?>
<svg version="1.1" width="144" height="144" xmlns="http://www.w3.org/2000/svg" shape-rendering="crispEdges">
<rect x="0" y="0" width="24" height="24" fill="#DF7126" />
<rect x="24" y="0" width="24" height="24" fill="#000000" />
<rect x="48" y="0" width="24" height="24" fill="#DF7126" />
<rect x="72" y="0" width="24" height="24" fill="#000000" />
<rect x="96" y="0" width="24" height="24" fill="#DF7126" />
<rect x="120" y="0" width="24" height="24" fill="#DF7126" />
<rect x="0" y="24" width="24" height="24" fill="#000000" />
<rect x="24" y="24" width="24" height="24" fill="#DF7126" />
<rect x="48" y="24" width="24" height="24" fill="#000000" />
<rect x="72" y="24" width="24" height="24" fill="#DF7126" />
<rect x="96" y="24" width="24" height="24" fill="#000000" />
<rect x="120" y="24" width="24" height="24" fill="#DF7126" />
<rect x="0" y="48" width="24" height="24" fill="#000000" />
<rect x="24" y="48" width="24" height="24" fill="#000000" />
<rect x="48" y="48" width="24" height="24" fill="#000000" />
<rect x="72" y="48" width="24" height="24" fill="#000000" />
<rect x="96" y="48" width="24" height="24" fill="#000000" />
<rect x="120" y="48" width="24" height="24" fill="#DF7126" />
<rect x="0" y="72" width="24" height="24" fill="#000000" />
<rect x="24" y="72" width="24" height="24" fill="#000000" />
<rect x="48" y="72" width="24" height="24" fill="#000000" />
<rect x="72" y="72" width="24" height="24" fill="#000000" />
<rect x="96" y="72" width="24" height="24" fill="#000000" />
<rect x="120" y="72" width="24" height="24" fill="#DF7126" />
<rect x="0" y="96" width="24" height="24" fill="#000000" />
<rect x="24" y="96" width="24" height="24" fill="#000000" />
<rect x="48" y="96" width="24" height="24" fill="#000000" />
<rect x="72" y="96" width="24" height="24" fill="#000000" />
<rect x="96" y="96" width="24" height="24" fill="#000000" />
<rect x="120" y="96" width="24" height="24" fill="#DF7126" />
<rect x="0" y="120" width="24" height="24" fill="#DF7126" />
<rect x="24" y="120" width="24" height="24" fill="#DF7126" />
<rect x="48" y="120" width="24" height="24" fill="#DF7126" />
<rect x="72" y="120" width="24" height="24" fill="#DF7126" />
<rect x="96" y="120" width="24" height="24" fill="#DF7126" />
<rect x="120" y="120" width="24" height="24" fill="#DF7126" />
</svg>