<?xml version="1.0" encoding="UTF-8"?>
<svg version="1.1" xmlns="http://www.w3.org/2000/svg" width="32" height="32">
<path d="M0 0 C7.92 0.33 15.84 0.66 24 1 C24.80357143 17.20535714 24.80357143 17.20535714 21.375 21.4375 C18.4451051 24.06406461 16.0131168 25.17077093 12 25 C9.375 23.5625 9.375 23.5625 7 22 C5.68 22 4.36 22 3 22 C3 19 3 19 4 17 C4.07033769 15.12620395 4.0843022 13.24998898 4.0625 11.375 C4.04896484 9.87066406 4.04896484 9.87066406 4.03515625 8.3359375 C4.02355469 7.56507812 4.01195312 6.79421875 4 6 C2.02 6.99 2.02 6.99 0 8 C0 5.36 0 2.72 0 0 Z " fill="#50AFFF" transform="translate(8,7)"/>
<path d="M0 0 C2.97 0 5.94 0 9 0 C8.67 1.32 8.34 2.64 8 4 C9.63788102 6.24522717 9.63788102 6.24522717 11.9375 8.25 C12.68902344 8.95640625 13.44054688 9.6628125 14.21484375 10.390625 C15.09849609 11.18726563 15.09849609 11.18726563 16 12 C12.79239749 15.80635497 9.59253891 19.54563567 6 23 C4.68 22.34 3.36 21.68 2 21 C2.32742188 20.45859375 2.65484375 19.9171875 2.9921875 19.359375 C4.21664767 16.49280933 4.19892146 14.3547013 4.125 11.25 C4.10695313 10.26515625 4.08890625 9.2803125 4.0703125 8.265625 C4.04710937 7.51796875 4.02390625 6.7703125 4 6 C2.02 6.99 2.02 6.99 0 8 C0 5.36 0 2.72 0 0 Z " fill="#CC1111" transform="translate(8,7)"/>
<path d="M0 0 C1.32 0 2.64 0 4 0 C4 1.98 4 3.96 4 6 C5.98 6 7.96 6 10 6 C10 7.32 10 8.64 10 10 C6.7 10 3.4 10 0 10 C0 6.7 0 3.4 0 0 Z " fill="#50B0FF" transform="translate(0,22)"/>
<path d="M0 0 C3.3 0 6.6 0 10 0 C10 1.32 10 2.64 10 4 C8.02 4 6.04 4 4 4 C4 5.98 4 7.96 4 10 C2.68 10 1.36 10 0 10 C0 6.7 0 3.4 0 0 Z " fill="#50B0FF" transform="translate(0,0)"/>
<path d="M0 0 C3.3 0 6.6 0 10 0 C10 1.98 10 3.96 10 6 C8.68 6 7.36 6 6 6 C6 5.34 6 4.68 6 4 C4.02 4 2.04 4 0 4 C0 2.68 0 1.36 0 0 Z " fill="#50B0FF" transform="translate(22,0)"/>
<path d="M0 0 C1.98 1.65 3.96 3.3 6 5 C4.71937515 6.7074998 3.38232443 8.37373596 2 10 C1.34 10 0.68 10 0 10 C0 6.7 0 3.4 0 0 Z " fill="#50AFFF" transform="translate(12,14)"/>
</svg>
